<svg width="220" height="199" viewBox="0 0 220 199" fill="none" xmlns="http://www.w3.org/2000/svg">
<path d="M125.567 93.0396C122.998 93.9838 116.882 93.4935 116.878 93.4935C116.873 93.4935 118.435 89.5621 118.567 89.326C120.078 86.6022 124.609 82.2122 128.037 82.8886C130.511 83.3744 131.746 85.953 131.042 88.2637C130.338 90.5745 127.755 92.236 125.567 93.0396Z" fill="#92E3A9"/>
<path d="M46.6022 67.358C50.0933 67.1946 53.9294 72.1974 55.0281 75.1165C55.1189 75.3707 56.1494 79.4929 56.0858 79.4883H56.0086C56.6215 80.2737 57.2707 81.1226 57.9562 82.0669C59.2137 83.8147 60.6165 85.8032 61.9966 88.0685C63.5146 90.4928 64.888 93.0046 66.1097 95.5909C67.4945 98.4782 68.6188 101.483 69.4691 104.571L69.4963 104.684C69.5372 103.663 69.7551 100.807 69.796 100.598C70.3861 97.534 73.3188 91.9727 76.7872 91.5187C79.2887 91.21 81.2635 93.2711 81.327 95.6863C81.3906 98.1014 79.4521 100.503 77.6226 101.951C75.5615 103.581 70.023 104.943 69.5826 105.052C70.3713 108.215 70.9476 111.427 71.3077 114.667C71.5302 116.556 71.6936 118.462 71.8298 120.378C71.8979 119.47 71.9614 118.703 71.9841 118.594C72.5698 115.53 75.507 109.968 78.9754 109.514C81.4768 109.206 83.4516 111.271 83.5152 113.687C83.5787 116.102 81.6403 118.499 79.8153 119.947C77.9903 121.395 73.2644 122.671 72.0159 122.989C72.0613 123.724 72.1158 124.455 72.1567 125.19C72.3655 128.718 72.5562 132.241 72.8512 135.686C72.9557 136.898 73.1009 138.092 73.2417 139.286C73.3007 138.501 73.3597 137.843 73.3779 137.743C73.9635 134.678 76.9007 129.117 80.3691 128.663C82.866 128.355 84.8454 130.416 84.9089 132.831C84.9725 135.246 83.034 137.647 81.2044 139.096C79.3749 140.544 75.1121 141.697 73.6321 142.078C73.8137 143.295 73.9953 144.516 74.2268 145.687C74.3993 146.486 74.5173 147.263 74.7353 148.057C74.9532 148.852 75.1393 149.623 75.339 150.395C75.793 151.866 76.2198 153.387 76.6783 154.812C76.9961 155.807 77.3139 156.746 77.6316 157.695C77.5136 156.488 77.3366 154.118 77.3411 153.918C77.5464 151.181 78.4481 148.541 79.9605 146.25C79.9712 145.945 80.0092 145.641 80.074 145.342C80.6007 142.982 82.9432 141.347 85.3356 142.142C88.6542 143.245 90.4338 149.292 90.4066 152.411C90.4066 152.597 90.1614 154.59 89.9889 155.847C90.2068 155.126 90.402 154.422 90.6336 153.677C91.0876 152.207 91.5415 150.754 92.0772 149.188L92.9171 146.918C93.1804 146.155 93.5527 145.388 93.875 144.612C94.6513 142.827 95.5229 141.057 96.4445 139.295C95.1552 138.905 90.6109 137.448 88.8404 135.913C87.0698 134.379 85.263 131.95 85.4264 129.489C85.5899 127.029 87.66 125.109 90.1433 125.531C93.589 126.116 96.2674 131.823 96.7123 134.91C96.7396 135.105 96.8077 137.357 96.8258 138.596C97.3842 137.539 97.9381 136.485 98.5419 135.418C100.281 132.386 102.133 129.376 103.99 126.362C104.553 125.454 105.102 124.514 105.656 123.592C105.202 123.456 99.754 121.844 97.7747 120.124C96.0132 118.594 94.1928 116.161 94.3607 113.7C94.5287 111.24 96.5898 109.319 99.073 109.741C102.519 110.327 105.197 116.034 105.642 119.121C105.678 119.357 105.774 122.598 105.756 123.42C106.977 121.386 108.171 119.334 109.269 117.282C110.767 114.508 112.082 111.638 113.205 108.693C112.992 108.629 107.304 106.972 105.274 105.211C103.513 103.685 101.697 101.247 101.86 98.7869C102.024 96.3264 104.094 94.406 106.577 94.8282C110.023 95.4139 112.697 101.12 113.146 104.212C113.178 104.453 113.283 107.939 113.255 108.575C113.319 108.402 113.405 108.234 113.469 108.062C114.513 105.077 115.291 102.005 115.793 98.8823C116.093 97.1617 116.279 95.5001 116.429 93.8885C115.339 93.6888 110.363 92.7173 108.361 91.3326C106.441 90.007 104.366 87.787 104.276 85.3219C104.185 82.8568 106.014 80.7231 108.525 80.8684C112.016 81.0727 115.303 86.4523 116.084 89.494C116.129 89.6574 116.374 91.3735 116.538 92.631C116.592 91.8955 116.665 91.1419 116.706 90.4383C116.86 87.8007 116.837 85.3764 116.801 83.2246C116.769 82.0034 116.719 80.9002 116.66 79.8697C115.693 79.1115 111.83 76.0199 110.708 73.9135C109.587 71.807 108.802 68.9197 109.841 66.6861C110.881 64.4526 113.505 63.4084 115.666 64.6932C118.671 66.5091 119.112 72.774 118.413 75.8156C118.349 76.0789 116.937 80.0785 116.883 80.0422L116.824 79.9968C116.901 80.9865 116.973 82.0533 117.028 83.22C117.11 85.3719 117.187 87.8007 117.087 90.4519C117.013 93.3113 116.774 96.1641 116.37 98.9958C115.93 102.169 115.208 105.298 114.213 108.343C114.202 108.379 114.189 108.414 114.172 108.448C114.772 107.621 116.533 105.356 116.687 105.197C118.866 102.968 124.405 99.931 127.519 101.488C129.789 102.614 130.289 105.424 128.995 107.467C127.701 109.51 124.777 110.45 122.453 110.645C119.833 110.867 114.463 108.952 114.036 108.797C112.929 111.875 111.617 114.875 110.109 117.777C109.256 119.47 108.339 121.15 107.385 122.825C107.926 122.126 108.42 121.504 108.498 121.422C110.677 119.189 116.215 116.156 119.33 117.713C121.599 118.835 122.094 121.645 120.81 123.692C119.525 125.74 116.588 126.675 114.263 126.87C111.939 127.065 107.295 125.531 106.092 125.104C105.724 125.744 105.365 126.384 104.993 127.024C103.222 130.08 101.438 133.121 99.7812 136.158C99.2001 137.225 98.6644 138.301 98.1197 139.377C98.6054 138.755 99.0276 138.238 99.0866 138.16C101.266 135.931 106.804 132.894 109.923 134.451C112.193 135.577 112.688 138.387 111.399 140.43C110.109 142.473 107.177 143.413 104.857 143.608C102.587 143.799 98.3376 142.414 96.8894 141.919C96.3719 143.036 95.8498 144.153 95.3958 145.256C95.1007 146.019 94.7648 146.732 94.5151 147.526C94.2654 148.32 93.9885 149.056 93.7297 149.796C93.2757 151.267 92.8217 152.779 92.4086 154.222C92.1226 155.226 91.8684 156.188 91.6096 157.155C92.1771 156.079 93.3393 154.004 93.4528 153.845C95.2687 151.308 100.262 147.49 103.604 148.534C106.001 149.306 106.931 152.002 105.964 154.218C104.997 156.433 102.246 157.809 99.981 158.353C97.4841 158.953 92.0999 157.945 91.428 157.813C91.0058 159.416 90.6109 160.991 90.2613 162.453C90.1841 162.771 90.1206 163.057 90.0479 163.361H87.8643C87.9823 162.907 88.1004 162.426 88.2275 161.944C88.6497 160.315 89.1354 158.585 89.6484 156.814C88.0565 156.059 86.5089 155.213 85.0133 154.281C83.1112 156.097 78.3989 158.095 77.7905 158.367C78.3217 159.933 78.8528 161.454 79.3749 162.88L79.561 163.379H77.3774C76.8508 161.84 76.3242 160.201 75.7976 158.508C75.1302 158.603 69.6961 159.37 67.2264 158.658C64.9883 158.008 62.3144 156.556 61.4337 154.249C60.553 151.943 61.6289 149.337 64.0577 148.684C67.4307 147.776 72.252 151.83 73.9544 154.449C74.0543 154.604 74.9532 156.401 75.5025 157.545C75.28 156.824 75.0485 156.124 74.8397 155.38C74.3857 153.909 74.0043 152.429 73.5731 150.84C73.3869 150.064 73.2053 149.278 73.0192 148.488C72.8331 147.699 72.706 146.859 72.5425 146.032C72.2066 144.117 71.9614 142.16 71.7526 140.185C70.4679 140.567 65.8509 141.86 63.5492 141.547C61.2476 141.234 58.3784 140.217 57.1572 138.07C55.936 135.922 56.6034 133.185 58.905 132.168C62.0829 130.756 67.4852 134.038 69.5599 136.372C69.6916 136.517 70.9899 138.356 71.6845 139.382C71.571 138.192 71.453 137.003 71.3758 135.795C71.1534 132.313 71.0399 128.777 70.9218 125.249C70.8855 124.169 70.831 123.093 70.7856 122.017C70.3317 122.158 64.8839 123.833 62.2962 123.474C59.9855 123.175 57.1254 122.144 55.9042 119.997C54.683 117.849 55.3504 115.112 57.652 114.095C60.8526 112.683 66.2322 115.965 68.3069 118.299C68.4658 118.476 70.3317 121.123 70.7766 121.822C70.6676 119.447 70.5405 117.087 70.3226 114.762C70.0416 111.623 69.5548 108.505 68.8653 105.429C68.6565 105.497 62.9954 107.245 60.3305 106.9C58.0198 106.595 55.1597 105.569 53.943 103.422C52.7264 101.275 53.3847 98.5373 55.6909 97.5203C58.8687 96.1085 64.2665 99.3907 66.3457 101.724C66.5046 101.906 68.5158 104.757 68.8426 105.302C68.8018 105.124 68.7791 104.934 68.7337 104.757C67.9616 101.69 66.9163 98.6983 65.6103 95.8179C64.9112 94.2199 64.153 92.7263 63.3813 91.2781C62.3598 91.7321 57.6747 93.6524 55.246 93.6025C52.9125 93.5526 49.9571 92.8444 48.5089 90.8469C47.0607 88.8494 47.4239 86.0528 49.5985 84.7908C52.622 83.0339 58.333 85.6987 60.6528 87.7961C60.7754 87.9096 61.9331 89.208 62.7593 90.1614C62.4007 89.5212 62.042 88.8539 61.6879 88.2456C60.3623 85.9757 59.0049 83.9464 57.7928 82.1759C57.0937 81.1726 56.4309 80.2828 55.818 79.452C54.5968 79.3567 49.6711 78.9072 47.5692 77.7677C45.4673 76.6283 43.2292 74.658 42.8614 72.2201C42.4937 69.7823 44.0872 67.4624 46.6022 67.358Z" fill="#92E3A9"/>
<path d="M63.5445 90.6517C63.4901 90.6834 62.6774 86.5159 62.6366 86.2481C62.3914 83.1338 63.7534 76.9778 66.9857 75.6522C69.3146 74.6943 71.7661 76.1607 72.4334 78.476C73.1008 80.7913 71.8977 83.6195 70.5176 85.4945C68.9287 87.7008 63.5491 90.6471 63.5445 90.6517Z" fill="#92E3A9"/>
<path d="M61.6105 155.77C61.6105 155.77 47.8459 155.598 44.6272 150.45H8.67212C8.67212 150.45 11.5957 155.725 16.1355 155.77H61.6105Z" fill="white" stroke="#263238" stroke-miterlimit="10"/>
<path d="M43.5832 152.147H14.2926C14.2926 152.147 14.8373 153.337 13.3438 153.991C14.2853 154.861 15.467 155.427 16.735 155.616H54.0247C54.0247 155.616 49.2761 155.162 46.7021 153.664C46.7021 153.664 43.7194 154.1 43.5832 152.147Z" fill="white" stroke="#263238" stroke-miterlimit="10"/>
<path d="M56.1811 196.923H138.814V186.7H56.1811V196.923Z" fill="#263238" stroke="#263238" stroke-miterlimit="10"/>
<path d="M10.706 196.923H93.3391V186.7H10.706V196.923Z" fill="white" stroke="#263238" stroke-miterlimit="10"/>
<path d="M92.7672 189.428H72.5879" stroke="#263238" stroke-miterlimit="10"/>
<path d="M88.7857 191.703H59.5132" stroke="#263238" stroke-miterlimit="10"/>
<path d="M77.1321 193.746H82.2484" stroke="#263238" stroke-miterlimit="10"/>
<path d="M84.2415 193.746H92.4812" stroke="#263238" stroke-miterlimit="10"/>
<path d="M11.1919 193.292H37.055" stroke="#263238" stroke-miterlimit="10"/>
<path d="M13.4663 191.93H16.8757" stroke="#263238" stroke-miterlimit="10"/>
<path d="M32.7922 191.703H21.4246" stroke="#263238" stroke-miterlimit="10"/>
<path d="M11.1919 188.974H21.1386" stroke="#263238" stroke-miterlimit="10"/>
<path d="M137.675 191.017H132.558" stroke="#8A8A8A" stroke-miterlimit="10"/>
<path d="M138.814 193.292H122.898" stroke="#8A8A8A" stroke-miterlimit="10"/>
<path d="M94.188 194.654H101.865" stroke="#8A8A8A" stroke-miterlimit="10"/>
<path d="M93.3347 191.017H114.086" stroke="#8A8A8A" stroke-miterlimit="10"/>
<path d="M131.991 188.066H120.056" stroke="#8A8A8A" stroke-miterlimit="10"/>
<path d="M48.4227 196.696H58.0879V186.7H48.4227V196.696Z" fill="white" stroke="#263238" stroke-miterlimit="10"/>
<path d="M55.1188 186.618H137.752V176.395H55.1188V186.618Z" fill="#263238" stroke="#263238" stroke-miterlimit="10"/>
<path d="M9.64373 186.618H92.2769V176.395H9.64373V186.618Z" fill="white" stroke="#263238" stroke-miterlimit="10"/>
<path d="M91.705 179.118H71.5256" stroke="#263238" stroke-miterlimit="10"/>
<path d="M87.728 181.388H58.4509" stroke="#263238" stroke-miterlimit="10"/>
<path d="M76.0745 183.436H81.1908" stroke="#263238" stroke-miterlimit="10"/>
<path d="M83.1792 183.436H91.4234" stroke="#263238" stroke-miterlimit="10"/>
<path d="M10.1296 182.982H35.9973" stroke="#263238" stroke-miterlimit="10"/>
<path d="M12.4041 181.615H15.8134" stroke="#263238" stroke-miterlimit="10"/>
<path d="M31.7342 181.388H20.3621" stroke="#263238" stroke-miterlimit="10"/>
<path d="M10.1296 178.664H20.0808" stroke="#263238" stroke-miterlimit="10"/>
<path d="M136.617 180.707H131.5" stroke="#8A8A8A" stroke-miterlimit="10"/>
<path d="M137.752 182.982H121.835" stroke="#8A8A8A" stroke-miterlimit="10"/>
<path d="M93.1304 184.344H100.803" stroke="#8A8A8A" stroke-miterlimit="10"/>
<path d="M92.2769 180.707H113.024" stroke="#8A8A8A" stroke-miterlimit="10"/>
<path d="M130.933 177.756H118.993" stroke="#8A8A8A" stroke-miterlimit="10"/>
<path d="M47.3648 186.391H57.03V176.395H47.3648V186.391Z" fill="white" stroke="#263238" stroke-miterlimit="10"/>
<path d="M58.4782 176.308H141.111V166.085H58.4782V176.308Z" fill="#263238" stroke="#263238" stroke-miterlimit="10"/>
<path d="M13.0031 176.308H95.6362V166.085H13.0031V176.308Z" fill="white" stroke="#263238" stroke-miterlimit="10"/>
<path d="M95.0643 168.809H74.885" stroke="#263238" stroke-miterlimit="10"/>
<path d="M91.0828 171.078H61.8103" stroke="#263238" stroke-miterlimit="10"/>
<path d="M79.4292 173.126H84.5455" stroke="#263238" stroke-miterlimit="10"/>
<path d="M86.5386 173.126H94.7783" stroke="#263238" stroke-miterlimit="10"/>
<path d="M13.489 172.672H39.3522" stroke="#263238" stroke-miterlimit="10"/>
<path d="M15.7634 171.305H19.1728" stroke="#263238" stroke-miterlimit="10"/>
<path d="M35.0893 171.078H23.7217" stroke="#263238" stroke-miterlimit="10"/>
<path d="M13.489 168.354H23.4357" stroke="#263238" stroke-miterlimit="10"/>
<path d="M139.972 170.397H134.855" stroke="#8A8A8A" stroke-miterlimit="10"/>
<path d="M141.111 172.672H125.195" stroke="#8A8A8A" stroke-miterlimit="10"/>
<path d="M96.4854 174.034H104.162" stroke="#8A8A8A" stroke-miterlimit="10"/>
<path d="M95.6318 170.397H116.383" stroke="#8A8A8A" stroke-miterlimit="10"/>
<path d="M134.288 167.447H122.353" stroke="#8A8A8A" stroke-miterlimit="10"/>
<path d="M50.7198 176.081H60.385V166.085H50.7198V176.081Z" fill="white" stroke="#263238" stroke-miterlimit="10"/>
<path d="M55.9133 165.994H138.546V155.77H55.9133V165.994Z" fill="#263238" stroke="#263238" stroke-miterlimit="10"/>
<path d="M10.4382 165.994H93.0713V155.77H10.4382V165.994Z" fill="white" stroke="#263238" stroke-miterlimit="10"/>
<path d="M92.5039 158.499H72.3201" stroke="#263238" stroke-miterlimit="10"/>
<path d="M88.5224 160.769H59.2454" stroke="#263238" stroke-miterlimit="10"/>
<path d="M76.8689 162.812H81.9852" stroke="#263238" stroke-miterlimit="10"/>
<path d="M83.9736 162.812H92.2179" stroke="#263238" stroke-miterlimit="10"/>
<path d="M10.9241 162.357H36.7918" stroke="#263238" stroke-miterlimit="10"/>
<path d="M13.1985 160.996H16.6124" stroke="#263238" stroke-miterlimit="10"/>
<path d="M32.5289 160.769H21.1567" stroke="#263238" stroke-miterlimit="10"/>
<path d="M10.9241 158.045H20.8753" stroke="#263238" stroke-miterlimit="10"/>
<path d="M137.411 160.088H132.295" stroke="#8A8A8A" stroke-miterlimit="10"/>
<path d="M138.546 162.357H122.63" stroke="#8A8A8A" stroke-miterlimit="10"/>
<path d="M93.9248 163.724H101.597" stroke="#8A8A8A" stroke-miterlimit="10"/>
<path d="M93.0713 160.088H113.818" stroke="#8A8A8A" stroke-miterlimit="10"/>
<path d="M131.728 157.132H119.788" stroke="#8A8A8A" stroke-miterlimit="10"/>
<path d="M48.1593 165.767H57.8245V155.77H48.1593V165.767Z" fill="white" stroke="#263238" stroke-miterlimit="10"/>
<path d="M204.319 40.5052H125.218V196.928H204.319V40.5052Z" fill="#263238" stroke="#263238" stroke-miterlimit="10"/>
<path d="M195.766 41.218V68.2978" stroke="#8A8A8A" stroke-miterlimit="10"/>
<path d="M200.755 47.9868V59.3907" stroke="#8A8A8A" stroke-miterlimit="10"/>
<path d="M198.263 45.4944V86.1118" stroke="#8A8A8A" stroke-miterlimit="10"/>
<path d="M202.539 40.5052V93.598" stroke="#8A8A8A" stroke-miterlimit="10"/>
<path d="M196.479 196.569V168.777" stroke="#8A8A8A" stroke-miterlimit="10"/>
<path d="M199.329 196.928V190.867" stroke="#8A8A8A" stroke-miterlimit="10"/>
<path d="M200.042 188.729V164.146" stroke="#8A8A8A" stroke-miterlimit="10"/>
<path d="M196.837 165.213V124.95" stroke="#8A8A8A" stroke-miterlimit="10"/>
<path d="M193.273 40.5052H114.172V196.928H193.273V40.5052Z" fill="#92E3A9" stroke="#263238" stroke-miterlimit="10"/>
<path d="M186.505 51.5732C184.959 51.5696 183.473 50.9745 182.352 49.91C181.23 48.8455 180.559 47.3922 180.476 45.8485H126.979C126.898 47.3946 126.226 48.8504 125.102 49.9156C123.979 50.9808 122.489 51.5742 120.941 51.5732C120.583 51.5723 120.226 51.5389 119.874 51.4733V182.773C120.226 182.71 120.583 182.676 120.941 182.673C121.987 182.673 123.015 182.944 123.925 183.459C124.835 183.974 125.597 184.717 126.135 185.614C126.673 186.511 126.969 187.532 126.996 188.577C127.022 189.623 126.777 190.657 126.284 191.58H181.161C180.668 190.657 180.421 189.623 180.447 188.576C180.473 187.53 180.769 186.509 181.307 185.611C181.846 184.714 182.608 183.972 183.518 183.457C184.429 182.942 185.458 182.672 186.505 182.673C186.862 182.676 187.219 182.71 187.572 182.773V51.4506C187.22 51.5238 186.863 51.5648 186.505 51.5732ZM152.12 142.41C139.622 142.41 129.494 131.405 129.494 117.827C129.494 104.248 139.622 93.2393 152.12 93.2393C164.618 93.2393 174.747 104.248 174.747 117.827C174.747 131.405 164.614 142.41 152.12 142.41Z" fill="white" stroke="#263238" stroke-miterlimit="10"/>
<path d="M204.173 109.274H114.526V125.308H204.173V109.274Z" fill="white" stroke="#263238" stroke-miterlimit="10"/>
<path d="M204.173 109.274H193.446V125.308H204.173V109.274Z" fill="#3D3D3D" stroke="#8A8A8A" stroke-miterlimit="10"/>
<path d="M27.7939 187.199L25.1517 191.162L19.99 195.248V196.932H37.6452L37.0414 191.031V188.388C37.0414 188.388 29.8368 185.274 27.7939 187.199Z" fill="#263238" stroke="#263238" stroke-miterlimit="10"/>
<path d="M37.4863 195.366H19.99V196.928H37.6452L37.4863 195.366Z" fill="white" stroke="#263238" stroke-miterlimit="10"/>
<path d="M56.9484 187.199L59.763 191.162L65.2698 195.248V196.932H46.4524L47.0925 191.031V188.388C47.0925 188.388 54.7738 185.274 56.9484 187.199Z" fill="#263238" stroke="#263238" stroke-miterlimit="10"/>
<path d="M46.6204 195.366H65.2698V196.928H46.4524L46.6204 195.366Z" fill="white" stroke="#263238" stroke-miterlimit="10"/>
<path d="M19.9172 104.997C19.9172 104.997 24.0394 151.521 24.3344 160.355C24.6295 169.19 27.426 181.116 27.426 181.116L26.1231 183.177L27.4487 187.739C27.4487 187.739 30.5403 187.004 32.161 187.594C33.7817 188.184 36.7008 188.92 36.7008 188.92C36.7008 188.92 38.1762 184.943 38.3215 183.177C38.4668 181.411 36.5646 177.139 36.5646 177.139L36.2695 123.992H38.9208L45.685 180.23L45.39 183.617L46.7156 188.92C46.7156 188.92 54.5195 187.299 55.1051 187.149C55.5524 187.082 56.0097 187.133 56.4307 187.299C56.4307 187.299 57.3387 185.383 57.3387 184.793C57.3387 184.203 56.1583 180.821 56.1583 180.821L55.8632 154.467V104.557L19.9399 103.821L19.9172 104.997Z" fill="#92E3A9" stroke="#263238" stroke-miterlimit="10"/>
<path d="M54.5966 125.544L55.4002 143.145L51.9727 143.454V145.637L54.465 145.792" stroke="#263238" stroke-linecap="round" stroke-linejoin="round"/>
<path d="M53.9976 112.452L54.5196 123.819" stroke="#263238" stroke-linecap="round" stroke-linejoin="round"/>
<path d="M52.4993 156.083C52.6128 159.23 52.8625 161.958 53.3754 162.149C54.6239 162.603 54.9326 163.084 54.9326 163.084" stroke="#263238" stroke-linecap="round" stroke-linejoin="round"/>
<path d="M52.454 146.259C52.454 146.259 52.3723 150.236 52.454 154.213" stroke="#263238" stroke-linecap="round" stroke-linejoin="round"/>
<path d="M32.656 122.421L38.8846 122.888" stroke="#263238" stroke-linecap="round" stroke-linejoin="round"/>
<path d="M34.6807 107.467L34.835 116.188L37.6406 118.217" stroke="#263238" stroke-linecap="round" stroke-linejoin="round"/>
<path d="M37.6406 110.581L38.1082 121.331" stroke="#263238" stroke-linecap="round" stroke-linejoin="round"/>
<path d="M35.7158 160.442L35.9246 171.187" stroke="#263238" stroke-linecap="round" stroke-linejoin="round"/>
<path d="M34.9893 123.043L35.6657 157.786" stroke="#263238" stroke-linecap="round" stroke-linejoin="round"/>
<path d="M47.6101 111.984C47.6101 111.984 49.7937 116.501 53.8432 115.098" stroke="#263238" stroke-linecap="round" stroke-linejoin="round"/>
<path d="M25.8009 111.984C25.8009 111.984 24.2392 115.412 21.7468 115.879" stroke="#263238" stroke-linecap="round" stroke-linejoin="round"/>
<path d="M35.0528 53.0848L30.3723 54.5012L26.45 104.802L47.1377 105.133L48.2273 53.4117L35.0528 53.0848Z" fill="white" stroke="#263238" stroke-miterlimit="10"/>
<path d="M33.3869 51.1192H32.2882L31.7344 52.5537L31.9568 64.6977L38.8028 60.285L45.5353 66.6861L46.4206 52.2223C46.4206 52.2223 46.752 51.5595 45.7578 51.1192C44.7636 50.6788 44.4321 50.5653 44.4321 50.5653L33.3869 51.1192Z" fill="white" stroke="#263238" stroke-miterlimit="10"/>
<path d="M32.7285 47.5781L33.0599 52.5719C33.0599 52.5719 36.2377 59.5268 38.3578 60.521C40.4779 61.5152 45.3173 52.2405 45.3173 52.2405L44.9859 46.7201H32.615L32.7285 47.5781Z" fill="white" stroke="#263238" stroke-miterlimit="10"/>
<path d="M32.7285 47.5781C32.7285 47.5781 36.7008 56.2037 39.0207 56.526C41.3405 56.8483 45.0949 48.5723 45.0949 47.8005C45.0949 47.0288 32.7285 47.5781 32.7285 47.5781Z" fill="#263238" stroke="#263238" stroke-miterlimit="10"/>
<path d="M30.6312 40.1874C30.6312 40.1874 28.7154 38.6166 28.4521 40.7957C28.1888 42.9748 30.9807 44.9814 30.9807 44.9814L30.6312 40.1874Z" fill="white" stroke="#263238" stroke-miterlimit="10"/>
<path d="M46.2027 40.1874C46.2027 40.1874 48.123 38.6166 48.3863 40.7957C48.6496 42.9748 45.8577 44.9814 45.8577 44.9814L46.2027 40.1874Z" fill="white" stroke="#263238" stroke-miterlimit="10"/>
<path d="M30.2815 40.446C30.2815 40.446 31.3302 46.552 32.2019 47.6824C33.0735 48.8129 35.7747 52.7398 38.3033 53.4389C40.832 54.138 44.7589 49.2532 45.5398 47.5962C46.3206 45.9392 46.5884 38.6165 46.5884 38.6165L46.5022 34.6941C46.5022 34.6941 46.2389 31.8159 45.1039 30.2451C43.969 28.6744 39.0887 27.6302 35.8655 28.8741C32.6422 30.118 29.9365 35.7383 29.9365 36.8732C29.9365 38.0082 30.2815 40.446 30.2815 40.446Z" fill="white" stroke="#263238" stroke-miterlimit="10"/>
<path d="M36.038 33.6455C36.038 33.6455 33.3141 36.7871 32.1156 37.3954C31.571 37.6464 31.0459 37.9377 30.5448 38.267L30.7173 41.9306L29.3236 36.9369C29.3236 36.9369 27.5804 31.639 27.939 29.2873C28.2976 26.9357 36.2196 24.6658 39.0115 23.7942C41.8035 22.9226 42.8476 24.6658 44.6772 26.0641C46.5067 27.4623 48.427 28.5065 48.1683 30.8626C47.9429 32.5015 47.5332 34.1097 46.9471 35.6567C46.9471 35.6567 46.4931 42.1939 46.4931 42.4663C46.4931 42.7387 45.7077 36.0153 45.7077 36.0153C45.2625 35.8982 44.8608 35.6545 44.5513 35.3136C44.2419 34.9727 44.038 34.5494 43.9644 34.095C43.7327 32.9447 43.581 31.7797 43.5105 30.6084C43.5105 30.6084 42.3755 32.9646 41.2406 34.095C40.1056 35.2254 37.3182 36.2741 36.8824 36.1878C36.4465 36.1016 37.3363 34.0087 37.3363 34.0087L35.7656 35.4932L36.038 33.6455Z" fill="#263238" stroke="#263238" stroke-miterlimit="10"/>
<path d="M36.7373 45.853C37.1691 46.2372 37.6719 46.5333 38.2173 46.7247C38.9164 46.8972 40.1376 45.853 40.4872 45.5897" stroke="#263238" stroke-miterlimit="10"/>
<path d="M36.4739 48.2954C36.4739 48.2954 38.4805 49.8616 41.1816 48.0321L36.4739 48.2954Z" fill="white"/>
<path d="M36.4739 48.2954C36.4739 48.2954 38.4805 49.8616 41.1816 48.0321" stroke="#263238" stroke-miterlimit="10"/>
<path d="M35.1209 42.7114C35.4343 42.7114 35.6884 42.2826 35.6884 41.7535C35.6884 41.2245 35.4343 40.7957 35.1209 40.7957C34.8075 40.7957 34.5535 41.2245 34.5535 41.7535C34.5535 42.2826 34.8075 42.7114 35.1209 42.7114Z" fill="#263238"/>
<path d="M41.7491 42.7114C42.0625 42.7114 42.3166 42.2826 42.3166 41.7535C42.3166 41.2245 42.0625 40.7957 41.7491 40.7957C41.4357 40.7957 41.1816 41.2245 41.1816 41.7535C41.1816 42.2826 41.4357 42.7114 41.7491 42.7114Z" fill="#263238"/>
<path d="M40.3962 38.7028C40.9583 38.4084 41.5994 38.3003 42.227 38.3941C42.8545 38.488 43.436 38.7789 43.8873 39.2249" stroke="#263238" stroke-miterlimit="10"/>
<path d="M35.7747 38.6165C35.3306 38.3534 34.8081 38.2547 34.2986 38.3377C33.7891 38.4207 33.325 38.6801 32.9873 39.0705" stroke="#263238" stroke-miterlimit="10"/>
<path d="M41.967 43.4106L43.8874 42.9747" stroke="#263238" stroke-miterlimit="10"/>
<path d="M33.1599 42.8885L34.7307 43.4106" stroke="#263238" stroke-miterlimit="10"/>
<path d="M31.8434 63.8305L30.8492 111.498L19.4997 110.949L18.8142 109.637C18.8142 109.637 17.2707 109.637 17.0482 108.42C16.8258 107.204 18.5917 80.487 18.5917 80.487L8.87207 79.6017L15.3867 66.8903C15.3867 66.8903 17.3751 58.0559 17.8154 57.3931C18.2558 56.7303 32.0613 51.9817 32.0613 51.9817L31.8434 63.8305Z" fill="#263238" stroke="#263238" stroke-miterlimit="10"/>
<path d="M45.9801 51.7002L44.3594 111.625L58.9321 111.476L59.5223 109.269L60.9931 108.239V103.526C60.9931 101.17 58.1966 84.0915 58.1966 84.0915C58.1966 84.0915 65.5602 83.061 65.7054 81.5901C65.8507 80.1192 62.6138 57.8879 60.8479 56.2672C59.0819 54.6465 45.9801 51.7002 45.9801 51.7002Z" fill="#263238" stroke="#263238" stroke-miterlimit="10"/>
<path d="M49.6348 85.8712L51.5733 91.4551C51.5733 91.4551 52.6946 88.7585 52.5266 87.0606C52.3586 85.3628 52.3541 84.8498 51.8456 84.7635C51.3372 84.6772 49.7301 84.3413 49.6348 85.8712Z" fill="white" stroke="#263238" stroke-miterlimit="10"/>
<path d="M30.2634 71.362L36.4693 83.6921L43.0157 80.4597L37.4908 67.4532L30.2634 71.362Z" fill="#92E3A9" stroke="#263238" stroke-miterlimit="10"/>
<path d="M41.0272 79.9649C40.9529 79.7685 40.9589 79.5508 41.0438 79.3588C41.1288 79.1668 41.2859 79.016 41.4812 78.9389C41.5174 78.9345 41.5539 78.9345 41.5901 78.9389L37.5043 69.3645C37.4671 69.4539 37.4103 69.5339 37.338 69.5983C37.2657 69.6627 37.1798 69.7101 37.0867 69.7368C36.9471 69.7693 36.8009 69.7589 36.6673 69.7071C36.5337 69.6553 36.4188 69.5643 36.3376 69.4462L32.0248 71.766C32.0804 71.8495 32.1218 71.9415 32.1474 72.0384C32.2076 72.2122 32.2091 72.4009 32.1517 72.5755C32.0943 72.7502 31.9811 72.9012 31.8296 73.0054L36.1378 81.5357C36.2148 81.4502 36.3137 81.3874 36.4239 81.3541C36.6066 81.3194 36.7958 81.3511 36.9572 81.4435C37.1187 81.5359 37.2419 81.6829 37.3046 81.858L41.0408 80.0148L41.0272 79.9649ZM37.3409 77.7586C36.5464 77.981 35.6884 77.3954 35.4206 76.4466C35.1527 75.4977 35.5749 74.5444 36.3648 74.3219C37.1548 74.0995 38.0173 74.6851 38.2852 75.6339C38.553 76.5828 38.1308 77.5316 37.3409 77.7586Z" fill="white" stroke="#263238" stroke-miterlimit="10"/>
<path d="M32.9192 69.8457L36.2332 83.2426L43.3335 81.5448L40.832 67.6394L32.9192 69.8457Z" fill="#92E3A9" stroke="#263238" stroke-miterlimit="10"/>
<path d="M41.504 80.6277C41.4886 80.5236 41.4939 80.4175 41.5195 80.3155C41.5452 80.2135 41.5908 80.1176 41.6536 80.0332C41.7165 79.9488 41.7954 79.8777 41.8858 79.8239C41.9762 79.7701 42.0763 79.7347 42.1804 79.7197C42.2166 79.7153 42.2532 79.7153 42.2894 79.7197L40.4735 69.4825C40.4166 69.561 40.3433 69.626 40.2585 69.6731C40.1738 69.7202 40.0798 69.7481 39.9832 69.7549C39.8389 69.754 39.6981 69.7104 39.5785 69.6296C39.4589 69.5488 39.366 69.4344 39.3113 69.3009L34.5627 70.6401C34.6002 70.7343 34.6217 70.834 34.6262 70.9352C34.646 71.1181 34.6052 71.3025 34.5101 71.46C34.415 71.6174 34.2707 71.7393 34.0996 71.8069L36.3922 81.0816C36.4858 81.0162 36.5959 80.9785 36.71 80.9727C36.8954 80.977 37.073 81.0484 37.2099 81.1736C37.3468 81.2988 37.4337 81.4693 37.4545 81.6536L41.5085 80.6867L41.504 80.6277ZM38.3806 77.6496C37.5589 77.695 36.8507 76.9323 36.8008 75.9471C36.7508 74.962 37.3728 74.1312 38.1945 74.0858C39.0162 74.0404 39.7199 74.8077 39.7743 75.7928C39.8288 76.7779 39.2205 77.6087 38.3806 77.6496Z" fill="white" stroke="#263238" stroke-miterlimit="10"/>
<path d="M36.8462 68.8107L36.0835 82.5889L43.3698 83.052L45.0586 69.0195L36.8462 68.8107Z" fill="#92E3A9" stroke="#263238" stroke-miterlimit="10"/>
<path d="M41.8898 81.6311C41.9233 81.4233 42.0374 81.2371 42.2075 81.113C42.3775 80.9889 42.5896 80.9369 42.7977 80.9682C42.8356 80.9771 42.8722 80.9909 42.9067 81.0091L44.1506 70.6766C44.0737 70.7361 43.9844 70.7777 43.8893 70.7981C43.7943 70.8185 43.6958 70.8173 43.6012 70.7946C43.4634 70.7532 43.3413 70.6713 43.2506 70.5596C43.1599 70.4479 43.1049 70.3115 43.0928 70.1681L38.1853 70.0455C38.1941 70.1447 38.1848 70.2447 38.1581 70.3406C38.1238 70.5215 38.031 70.6862 37.8941 70.8092C37.7571 70.9323 37.5834 71.0069 37.3999 71.0216L36.8733 80.5551C36.9845 80.5232 37.1025 80.5232 37.2138 80.5551C37.3899 80.6153 37.5384 80.7371 37.6319 80.8981C37.7253 81.0591 37.7574 81.2485 37.7222 81.4313L41.8852 81.6946C41.8813 81.6734 41.8829 81.6515 41.8898 81.6311ZM39.7924 77.8767C38.9979 77.6769 38.5439 76.7417 38.7845 75.7838C39.0251 74.8259 39.865 74.2131 40.664 74.4219C41.463 74.6307 41.9079 75.5614 41.6718 76.5193C41.4358 77.4772 40.5914 78.0764 39.7924 77.8767Z" fill="white" stroke="#263238" stroke-miterlimit="10"/>
<path d="M51.8455 82.2983C51.0428 82.1778 50.2484 82.008 49.4666 81.7899C49.1261 81.6219 46.661 80.7684 44.7044 79.7515C42.7477 78.7346 41.1361 79.7515 38.3487 80.26C35.5613 80.7684 34.7759 80.9409 34.7759 81.6219C34.7759 82.3029 36.2241 82.4708 36.2241 82.4708C36.2241 82.4708 34.8621 82.6388 35.5431 83.574C35.9442 84.1297 36.5094 84.5457 37.1593 84.7634C37.5358 85.3873 38.0253 85.9354 38.6029 86.3796C39.4519 86.9743 40.0466 87.4873 40.0466 87.4873C40.5789 88.1503 41.2867 88.6505 42.0895 88.931C43.2789 89.2714 49.9932 87.2285 49.9932 87.2285C49.9932 87.2285 52.0316 87.8232 52.5446 86.7201C53.0576 85.6169 51.8455 82.2983 51.8455 82.2983Z" fill="white" stroke="#263238" stroke-linecap="round" stroke-linejoin="round"/>
<path d="M36.2061 82.4709C36.2061 82.4709 41.3042 82.2984 42.9204 81.7899" stroke="#263238" stroke-linecap="round" stroke-linejoin="round"/>
<path d="M37.1411 84.7634C38.5464 84.9885 39.9672 85.1023 41.3903 85.1039C42.2283 85.0873 43.0478 84.8542 43.7692 84.4275" stroke="#263238" stroke-linecap="round" stroke-linejoin="round"/>
<path d="M39.2886 86.8926C39.2886 86.8926 42.2621 87.8005 44.2823 87.1468" stroke="#263238" stroke-linecap="round" stroke-linejoin="round"/>
<path d="M54.3697 67.7484L55.9904 80.4099L51.4233 81.7355C51.4233 81.7355 52.1633 85.5625 51.8773 87.333C51.6854 88.6988 51.5868 90.076 51.5822 91.4552C51.5822 91.4552 56.576 89.8345 59.8265 89.5394C63.077 89.2443 65.8644 87.7734 66.7451 85.4172C67.6258 83.0611 64.8339 74.9757 64.8339 74.9757" fill="#263238"/>
<path d="M54.3697 67.7484L55.9904 80.4099L51.4233 81.7355C51.4233 81.7355 52.1633 85.5625 51.8773 87.333C51.6854 88.6988 51.5868 90.076 51.5822 91.4552C51.5822 91.4552 56.576 89.8345 59.8265 89.5394C63.077 89.2443 65.8644 87.7734 66.7451 85.4172C67.6258 83.0611 64.8339 74.9757 64.8339 74.9757" stroke="#263238" stroke-miterlimit="10"/>
<path d="M53.7659 81.3632L55.9904 80.4098L61.6197 78.8981" stroke="#6B6B6B" stroke-miterlimit="10"/>
<path d="M55.9902 80.4099L54.2424 65.4558" stroke="#6B6B6B" stroke-miterlimit="10"/>
<path d="M27.2037 80.1192C27.2037 80.1192 26.1867 75.6158 25.76 74.7623C25.3333 73.9088 23.0361 76.2967 22.8682 77.0594C22.7002 77.8221 26.5227 80.2055 27.2037 80.1192Z" fill="white" stroke="#263238" stroke-miterlimit="10"/>
<path d="M24.9836 70.6401L22.7864 73.2187C22.7864 73.2187 23.3992 76.9958 23.8895 77.1456C24.3798 77.2955 27.8846 74.5943 27.8846 74.5943L24.9836 70.6401Z" fill="white" stroke="#263238" stroke-miterlimit="10"/>
<path d="M29.065 65.4694C29.065 65.4694 25.238 69.2102 24.9792 70.6539C24.7204 72.0975 27.4443 74.8214 27.7848 75.0756C28.1253 75.3298 30.5904 73.3732 30.6721 73.0327C30.7538 72.6922 29.0605 70.0591 29.0605 70.0591C29.8405 70.4413 30.5984 70.8672 31.3304 71.3348C31.5846 71.589 33.2008 73.8862 33.7955 73.7137C34.3902 73.5412 34.136 72.438 33.7955 71.4211C33.455 70.4042 29.8005 66.9993 29.8005 66.9993L32.2656 67.594C32.2656 67.594 35.1574 70.3996 35.8384 70.3996C36.5193 70.3996 36.1789 69.7187 35.7521 69.1239C35.3254 68.5292 33.287 66.1504 32.7786 65.5557C32.2701 64.961 30.3135 64.6205 30.0547 64.6205C29.7959 64.6205 29.065 65.4694 29.065 65.4694Z" fill="white" stroke="#263238" stroke-linecap="round" stroke-linejoin="round"/>
<path d="M29.0649 70.059L27.8755 68.8696" stroke="#263238" stroke-linecap="round" stroke-linejoin="round"/>
<path d="M26.3457 70.3134L29.4055 74.0541" stroke="#263238" stroke-linecap="round" stroke-linejoin="round"/>
<path d="M22.7003 72.8102C22.7003 72.8102 23.295 74.8485 23.6355 76.1242C23.9759 77.3999 27.2037 80.1192 27.2037 80.1192C27.2037 80.1192 22.614 84.9632 18.5327 87.0878C14.4515 89.2124 9.65746 88.1456 8.21381 86.4477C6.77016 84.7498 7.36487 79.8196 8.5543 78.7982C9.74372 77.7767 16.6623 76.4647 18.3648 75.5295C20.0672 74.5943 22.7003 72.8102 22.7003 72.8102Z" fill="#263238" stroke="#263238" stroke-miterlimit="10"/>
<path d="M22.7002 72.8102L11.5142 78.2761" stroke="#6B6B6B" stroke-miterlimit="10"/>
<path d="M21.2473 73.5275V68.3068" stroke="#6B6B6B" stroke-miterlimit="10"/>
<path d="M95.6907 188.357C95.6907 188.357 94.3288 188.743 90.697 186.051C87.0652 183.359 82.8159 179.513 82.8159 179.513C82.8159 179.513 87.0107 178.95 88.9492 177.929C91.0829 176.799 93.5797 174.129 93.5797 174.129C93.5797 174.129 102.037 185.665 112.615 184.898C112.432 185.881 112.002 186.802 111.367 187.575C110.732 188.348 109.912 188.948 108.983 189.319C105.687 190.663 95.6907 188.357 95.6907 188.357Z" fill="#92E3A9" stroke="#263238" stroke-linejoin="round"/>
<path d="M109.414 186.219C109.414 186.219 100.435 183.863 95.5817 178.71C95.3479 178.774 95.1028 178.785 94.8642 178.742C94.6256 178.699 94.3995 178.604 94.2022 178.464C94.0049 178.323 93.8414 178.14 93.7235 177.928C93.6056 177.716 93.5363 177.481 93.5207 177.239C91.8241 178.832 89.6488 179.82 87.3329 180.049C87.3329 180.049 87.4782 181.08 87.0378 181.375C87.0378 181.375 93.9565 187.413 97.9333 188.148C100.694 188.7 103.519 188.853 106.323 188.602C107.534 188.474 108.671 187.958 109.564 187.131C109.564 187.131 108.089 186.809 109.414 186.219ZM100.934 185.887C100.612 186.682 99.0092 186.795 97.3522 186.105C95.6952 185.415 94.6284 184.248 94.928 183.459C95.2276 182.669 96.8529 182.551 98.5099 183.241C100.167 183.931 101.252 185.097 100.934 185.887Z" fill="white" stroke="#263238" stroke-miterlimit="10"/>
<path d="M94.3289 188.116C94.3289 188.116 98.9594 190.023 102.614 190.023C104.753 190.035 106.885 189.799 108.97 189.319C108.97 189.319 107.721 190 105.692 188.697C104.534 187.953 103.79 186.296 103.79 186.296C100.736 187.338 97.5516 187.951 94.3289 188.116Z" fill="#92E3A9" stroke="#263238" stroke-linejoin="round"/>
<path d="M146.346 168.727C146.346 168.727 154.776 165.953 159.706 162.662L164.95 171.287C164.95 171.287 152.411 181.052 149.12 178.483L146.346 168.727Z" fill="#92E3A9" stroke="#263238" stroke-linejoin="round"/>
<path d="M161.354 170.783C161.365 170.535 161.456 170.296 161.614 170.104C161.772 169.911 161.988 169.775 162.23 169.716L159.902 165.853C159.707 165.919 159.503 165.953 159.298 165.953C159.048 165.966 158.799 165.919 158.572 165.814C158.345 165.71 158.147 165.552 157.995 165.354C153.641 168.4 146.963 169.962 146.963 169.962L148.298 175.205C148.298 175.205 148.094 178.083 151.689 177.361C154.476 176.803 159.72 173.276 161.949 171.737C161.774 171.645 161.626 171.509 161.522 171.341C161.417 171.173 161.359 170.981 161.354 170.783ZM152.37 174.642C150.795 175.001 149.328 174.465 149.092 173.444C148.856 172.422 149.946 171.296 151.521 170.933C153.096 170.57 154.567 171.11 154.803 172.132C155.039 173.153 153.95 174.279 152.37 174.642Z" fill="white" stroke="#263238" stroke-miterlimit="10"/>
<path d="M145.111 164.823L150.867 176.231C150.867 176.231 148.915 177.257 149.119 178.501L143.572 167.605C143.572 167.605 142.85 165.849 145.111 164.823Z" fill="#92E3A9" stroke="#263238" stroke-linejoin="round"/>
<path d="M144.062 168.563L148.339 176.953C148.521 176.55 148.844 176.227 149.247 176.045L144.494 167.701L144.062 168.563Z" fill="white" stroke="#263238" stroke-miterlimit="10"/>
<path d="M82.6389 105.047L82.7297 126.915L94.1427 126.866L94.179 104.552L82.6389 105.047Z" fill="#92E3A9" stroke="#263238" stroke-miterlimit="10"/>
<path d="M91.6412 124.768C91.651 124.605 91.6932 124.445 91.7654 124.298C91.8376 124.152 91.9384 124.021 92.0619 123.913C92.1853 123.806 92.3289 123.724 92.4843 123.673C92.6397 123.622 92.8037 123.602 92.9668 123.615C93.0241 123.627 93.0803 123.644 93.1348 123.665L93.1121 107.018C93.0112 107.109 92.891 107.176 92.7606 107.215C92.6302 107.253 92.4927 107.262 92.3585 107.24C92.1585 107.191 91.9772 107.084 91.8368 106.933C91.6965 106.783 91.6033 106.594 91.5686 106.391L84.6863 106.686C84.7087 106.828 84.7087 106.972 84.6863 107.113C84.6633 107.371 84.5549 107.615 84.3781 107.805C84.2014 107.995 83.9663 108.12 83.7102 108.162V123.597C83.8771 123.53 84.0592 123.509 84.2368 123.538C84.5198 123.62 84.7652 123.798 84.931 124.042C85.0967 124.285 85.1723 124.579 85.1448 124.873L91.6639 124.845C91.6412 124.809 91.6367 124.786 91.6412 124.768ZM87.8641 119.021C86.5975 118.789 85.7622 117.35 85.9983 115.802C86.2343 114.254 87.4646 113.187 88.7221 113.423C89.9796 113.659 90.8286 115.094 90.588 116.642C90.3474 118.19 89.1171 119.257 87.8641 119.021Z" fill="white" stroke="#263238" stroke-miterlimit="10"/>
<path d="M189.356 12.5175L173.439 28.4339L181.747 36.7417L198.081 20.5983L189.356 12.5175Z" fill="#92E3A9" stroke="#263238" stroke-miterlimit="10"/>
<path d="M181.465 33.4141C181.592 33.3009 181.74 33.2143 181.901 33.1594C182.062 33.1046 182.232 33.0827 182.401 33.095C182.571 33.1073 182.736 33.1535 182.887 33.2309C183.038 33.3084 183.172 33.4154 183.281 33.5457C183.316 33.5971 183.344 33.6519 183.368 33.7092L195.511 21.6107C195.371 21.6034 195.234 21.5645 195.11 21.4969C194.987 21.4293 194.88 21.3347 194.799 21.2202C194.69 21.038 194.637 20.8279 194.645 20.6158C194.654 20.4037 194.725 20.1988 194.849 20.0263L189.637 15.1914C189.548 15.3101 189.442 15.4155 189.324 15.5047C189.118 15.6759 188.861 15.773 188.593 15.7804C188.326 15.7878 188.063 15.7051 187.848 15.5455L176.558 26.7134C176.727 26.7837 176.874 26.9001 176.98 27.0493C177.129 27.3153 177.18 27.6252 177.124 27.9249C177.067 28.2245 176.907 28.4947 176.671 28.6882L181.415 33.4368L181.465 33.4141ZM182.918 26.4773C182.164 25.3832 182.614 23.7262 183.917 22.7774C185.22 21.8286 186.89 21.9557 187.639 23.0498C188.389 24.1439 187.939 25.8054 186.636 26.7497C185.333 27.694 183.654 27.5532 182.918 26.4546V26.4773Z" fill="white" stroke="#263238" stroke-miterlimit="10"/>
<path d="M79.6927 79.2386L101.838 70.4814L97.2662 58.9231L74.6172 67.7257L79.6927 79.2386Z" fill="#92E3A9" stroke="#263238" stroke-miterlimit="10"/>
<path d="M96.1266 62.2916C95.323 62.4687 94.5649 62.0737 94.4333 61.3837C94.4286 61.3187 94.4286 61.2535 94.4333 61.1885L77.5498 67.8075C77.6832 67.874 77.7998 67.9698 77.891 68.0877C77.9822 68.2056 78.0456 68.3426 78.0764 68.4884C78.1049 68.7105 78.0682 68.9361 77.9706 69.1377C77.8731 69.3392 77.719 69.508 77.5271 69.6234L80.5461 76.542C80.6884 76.4643 80.8414 76.4077 81 76.3741C81.2711 76.2941 81.5612 76.3075 81.8238 76.412C82.0864 76.5166 82.3063 76.7062 82.4482 76.9506L98.1059 70.8582C97.97 70.7196 97.877 70.5446 97.8381 70.3543C97.8026 70.0328 97.8827 69.7092 98.064 69.4413C98.2453 69.1735 98.5161 68.9789 98.8278 68.8925L96.2128 62.2871L96.1266 62.2916ZM91.8047 68.4158C92.0726 69.7778 90.9422 71.2169 89.2761 71.5937C87.61 71.9705 86.0483 71.1397 85.7804 69.7778C85.5126 68.4158 86.643 66.9812 88.3091 66.5999C89.9752 66.2186 91.5369 67.0357 91.8047 68.4158Z" fill="white" stroke="#263238" stroke-miterlimit="10"/>
<path d="M157.854 12.4448C157.854 12.4448 159.216 12.8035 160.968 16.9846C162.721 21.1657 164.4 26.6316 164.4 26.6316C164.4 26.6316 160.505 24.9701 158.317 24.8566C155.902 24.734 152.393 25.7645 152.393 25.7645C152.393 25.7645 151.031 11.5232 141.547 6.77917C142.207 6.02023 143.049 5.44161 143.994 5.09773C144.939 4.75385 145.956 4.65602 146.949 4.81344C150.445 5.34914 157.854 12.4448 157.854 12.4448Z" fill="#92E3A9" stroke="#263238" stroke-linejoin="round"/>
<path d="M144.97 7.26043C144.97 7.26043 151.48 13.893 153.019 20.789C153.252 20.8546 153.468 20.9711 153.651 21.1302C153.834 21.2892 153.979 21.4867 154.076 21.7085C154.173 21.9304 154.22 22.171 154.213 22.4131C154.206 22.6553 154.146 22.8929 154.036 23.1088C156.308 22.6156 158.68 22.887 160.782 23.8806C160.782 23.8806 161.182 22.9181 161.713 22.8909C161.713 22.8909 158.853 14.1654 155.811 11.5006C153.717 9.61646 151.365 8.04182 148.824 6.82461C147.718 6.31872 146.478 6.18185 145.288 6.43419C145.288 6.43419 146.427 7.43294 144.97 7.26043ZM152.089 11.8819C152.765 11.3689 154.195 12.1044 155.266 13.5299C156.338 14.9554 156.674 16.5261 155.993 17.0437C155.312 17.5612 153.886 16.8212 152.815 15.3957C151.744 13.9702 151.421 12.3995 152.089 11.8819Z" fill="white" stroke="#263238" stroke-miterlimit="10"/>
<path d="M158.903 13.3483C158.903 13.3483 155.897 9.35326 152.756 7.46925C150.929 6.36344 148.981 5.47228 146.949 4.81348C146.949 4.81348 148.37 4.86795 149.446 7.02435C150.059 8.25917 149.855 10.0615 149.855 10.0615C153.008 10.7337 156.053 11.8398 158.903 13.3483Z" fill="#92E3A9" stroke="#263238" stroke-linejoin="round"/>
<path d="M40.3734 1L42.5662 9.03541C42.5662 9.03541 31.6071 17.1525 15.0505 14.8781L15.9585 6.19351C15.9585 6.19351 22.4504 7.49189 28.3748 6.27523C34.2992 5.05857 40.3734 1 40.3734 1Z" fill="#92E3A9" stroke="#263238" stroke-miterlimit="10"/>
<path d="M39.1204 8.68137C39.1433 8.48378 39.226 8.2979 39.3574 8.14861C39.4889 7.99933 39.6628 7.89376 39.8559 7.84605L38.562 4.27324C38.3733 4.33643 38.1755 4.36863 37.9764 4.36857C37.6339 4.37421 37.2985 4.27088 37.0185 4.07349C35.2026 5.02684 31.7932 6.6884 28.3929 7.39207C25.2957 7.94784 22.1368 8.07615 19.0047 7.77341C18.8834 7.90338 18.7341 8.00403 18.5681 8.06774C18.4022 8.13145 18.2239 8.15655 18.0468 8.14113L17.6155 13.0078C17.7244 13.0078 17.8379 13.0078 17.9514 13.0078C18.8594 13.0078 19.5721 13.2802 19.5721 13.6161C19.5665 13.67 19.5483 13.7219 19.5192 13.7676C19.49 13.8133 19.4507 13.8516 19.4042 13.8794C29.9228 14.2789 37.2864 10.6426 39.5199 9.37141C39.4014 9.2985 39.3028 9.19727 39.2331 9.07682C39.1633 8.95637 39.1246 8.82048 39.1204 8.68137ZM28.7107 11.2191C27.1036 11.5414 25.6963 11.269 25.5646 10.6108C25.433 9.95251 26.6269 9.16258 28.234 8.84026C29.8411 8.51793 31.2484 8.79032 31.3801 9.44859C31.5118 10.1069 30.3178 10.8968 28.7107 11.2191Z" fill="white" stroke="#263238" stroke-miterlimit="10"/>
<path d="M188.23 179.945L190.418 187.98C190.418 187.98 179.463 196.097 162.902 193.823L163.81 185.138C163.81 185.138 170.302 186.436 176.231 185.22C182.16 184.003 188.23 179.945 188.23 179.945Z" fill="#92E3A9" stroke="#263238" stroke-miterlimit="10"/>
<path d="M186.972 187.63C186.994 187.432 187.077 187.245 187.208 187.095C187.34 186.945 187.514 186.839 187.708 186.791L186.414 183.227C186.224 183.286 186.027 183.317 185.828 183.318C185.479 183.327 185.136 183.225 184.848 183.027C183.073 183.976 179.645 185.637 176.249 186.341C173.152 186.897 169.993 187.025 166.861 186.722C166.74 186.852 166.591 186.953 166.425 187.017C166.259 187.081 166.08 187.106 165.903 187.09L165.495 191.957C165.604 191.957 165.717 191.957 165.835 191.957C166.743 191.957 167.451 192.225 167.451 192.561C167.446 192.615 167.427 192.666 167.398 192.712C167.369 192.758 167.33 192.796 167.283 192.824C177.802 193.228 185.166 189.592 187.404 188.316C187.28 188.247 187.175 188.148 187.1 188.029C187.024 187.909 186.981 187.772 186.972 187.63ZM176.563 190.164C174.956 190.486 173.548 190.214 173.417 189.56C173.285 188.906 174.479 188.107 176.086 187.785C177.693 187.462 179.1 187.739 179.232 188.393C179.364 189.047 178.17 189.846 176.563 190.164Z" fill="white" stroke="#263238" stroke-miterlimit="10"/>
<path d="M73.4458 11.2418C73.4458 11.2418 81.8716 8.46798 86.8064 5.17664L92.0498 13.8022C92.0498 13.8022 79.511 23.5764 76.2196 21.0069L73.4458 11.2418Z" fill="#92E3A9" stroke="#263238" stroke-linejoin="round"/>
<path d="M88.4498 13.2982C88.4615 13.0491 88.5536 12.8104 88.7124 12.6181C88.8712 12.4257 89.0881 12.29 89.3305 12.2314L86.9971 8.36803C86.8043 8.43474 86.6018 8.4685 86.3978 8.4679C86.1483 8.48129 85.8993 8.43373 85.6723 8.32932C85.4453 8.22491 85.2471 8.0668 85.0949 7.86865C80.7412 10.9148 74.0632 12.4765 74.0632 12.4765L75.3979 17.72C75.3979 17.72 75.1936 20.5982 78.7891 19.8764C81.572 19.318 86.8155 15.7906 89.0491 14.2516C88.8731 14.1608 88.7246 14.0244 88.6192 13.8567C88.5139 13.6891 88.4553 13.4962 88.4498 13.2982ZM79.4701 17.157C77.8948 17.5157 76.4239 16.98 76.1924 15.9585C75.9609 14.9371 77.0459 13.8112 78.6212 13.448C80.1965 13.0849 81.6674 13.6251 81.9034 14.6511C82.1395 15.6771 81.0545 16.7939 79.4701 17.157Z" fill="white" stroke="#263238" stroke-miterlimit="10"/>
<path d="M72.211 7.33752L77.9674 18.746C77.9674 18.746 76.0153 19.772 76.2196 21.0159L70.6674 10.1204C70.6674 10.1204 69.9501 8.36352 72.211 7.33752Z" fill="#92E3A9" stroke="#263238" stroke-linejoin="round"/>
<path d="M71.1624 11.0784L75.4343 19.4679C75.6163 19.0648 75.9391 18.7419 76.3422 18.5599L71.5936 10.2158L71.1624 11.0784Z" fill="white" stroke="#263238" stroke-miterlimit="10"/>
<path d="M143.935 61.8422L128.019 77.7586L136.326 86.0619L152.665 69.9184L143.935 61.8422Z" fill="#92E3A9" stroke="#263238" stroke-miterlimit="10"/>
<path d="M136.05 82.7161C136.176 82.6029 136.324 82.5163 136.485 82.4615C136.646 82.4066 136.816 82.3847 136.985 82.397C137.155 82.4093 137.32 82.4555 137.471 82.533C137.622 82.6104 137.756 82.7174 137.865 82.8478C137.898 82.8993 137.926 82.9541 137.947 83.0112L150.105 70.9263C149.965 70.9204 149.828 70.882 149.705 70.8143C149.582 70.7465 149.476 70.6512 149.397 70.5359C149.287 70.3541 149.233 70.1442 149.241 69.9321C149.249 69.72 149.319 69.5149 149.442 69.3419L144.23 64.5161C144.142 64.6344 144.037 64.7385 143.917 64.8248C143.712 64.9974 143.455 65.0959 143.187 65.1041C142.919 65.1123 142.657 65.0299 142.442 64.8702L131.151 76.0335C131.321 76.1059 131.467 76.2238 131.573 76.374C131.722 76.64 131.773 76.9499 131.717 77.2496C131.66 77.5492 131.5 77.8195 131.265 78.0129L135.986 82.757L136.05 82.7161ZM137.498 75.7793C136.749 74.6807 137.198 73.0282 138.501 72.0794C139.804 71.1306 141.47 71.2577 142.219 72.3518C142.968 73.4459 142.523 75.1029 141.216 76.0517C139.908 77.0005 138.256 76.8734 137.498 75.7793Z" fill="white" stroke="#263238" stroke-miterlimit="10"/>
<path d="M173.031 100.675L194.781 102.945L195.961 91.5959L173.784 89.1489L173.031 100.675Z" fill="#92E3A9" stroke="#263238" stroke-miterlimit="10"/>
<path d="M193.605 93.8522C193.444 93.8249 193.29 93.7657 193.152 93.6783C193.014 93.5909 192.895 93.4768 192.801 93.3429C192.708 93.2089 192.642 93.0577 192.608 92.8981C192.574 92.7385 192.571 92.5736 192.601 92.4131C192.621 92.3567 192.645 92.302 192.674 92.2497L176.117 90.4746C176.198 90.5851 176.252 90.7123 176.277 90.8467C176.301 90.9811 176.295 91.1193 176.258 91.2509C176.19 91.4413 176.067 91.6077 175.906 91.7301C175.745 91.8526 175.552 91.9258 175.35 91.941L174.896 98.8278C175.04 98.8229 175.184 98.8382 175.323 98.8732C175.578 98.9246 175.809 99.0597 175.978 99.2571C176.147 99.4545 176.246 99.7029 176.258 99.9628L191.589 101.647C191.539 101.475 191.539 101.292 191.589 101.12C191.698 100.845 191.901 100.617 192.161 100.475C192.422 100.334 192.724 100.289 193.015 100.349L193.686 93.8658L193.605 93.8522ZM187.485 97.0301C187.117 98.2649 185.597 98.9413 184.085 98.5373C182.573 98.1332 181.642 96.7985 182.01 95.5637C182.378 94.3289 183.903 93.6525 185.415 94.0565C186.927 94.4605 187.853 95.768 187.485 97.0074V97.0301Z" fill="white" stroke="#263238" stroke-miterlimit="10"/>
<path d="M197.809 121.227C197.809 121.227 199.17 121.586 200.923 125.767C202.675 129.948 204.35 135.414 204.35 135.414C204.35 135.414 200.46 133.752 198.267 133.639C195.856 133.516 192.365 134.547 192.365 134.547C192.365 134.547 191.003 120.306 181.52 115.561C182.182 114.809 183.025 114.236 183.969 113.898C184.913 113.56 185.928 113.467 186.918 113.627C190.395 114.131 197.809 121.227 197.809 121.227Z" fill="#92E3A9" stroke="#263238" stroke-linejoin="round"/>
<path d="M184.92 116.038C184.92 116.038 191.435 122.657 192.974 129.571C193.207 129.636 193.423 129.751 193.607 129.91C193.79 130.068 193.935 130.265 194.033 130.487C194.13 130.709 194.177 130.949 194.17 131.191C194.162 131.434 194.101 131.671 193.991 131.886C196.26 131.39 198.631 131.659 200.732 132.649C200.732 132.649 201.136 131.687 201.663 131.659C201.663 131.659 198.807 122.934 195.761 120.269C193.672 118.381 191.322 116.804 188.784 115.584C187.677 115.078 186.437 114.941 185.247 115.194C185.247 115.194 186.377 116.215 184.92 116.038ZM192.039 120.66C192.72 120.147 194.145 120.882 195.216 122.308C196.288 123.733 196.624 125.304 195.943 125.821C195.262 126.339 193.836 125.599 192.765 124.173C191.694 122.748 191.371 121.182 192.039 120.664V120.66Z" fill="white" stroke="#263238" stroke-miterlimit="10"/>
<path d="M198.853 122.131C198.853 122.131 195.848 118.122 192.711 116.252C190.882 115.151 188.932 114.266 186.9 113.614C186.9 113.614 188.325 113.668 189.397 115.825C190.014 117.06 189.805 118.862 189.805 118.862C192.958 119.528 196.003 120.628 198.853 122.131Z" fill="#92E3A9" stroke="#263238" stroke-linejoin="round"/>
<path d="M187.285 68.7472C187.285 68.7472 179.936 73.7183 176.086 78.2308L168.672 71.3576C168.672 71.3576 178.065 58.5372 181.933 60.1125L187.285 68.7472Z" fill="#92E3A9" stroke="#263238" stroke-linejoin="round"/>
<path d="M172.304 70.8719C172.362 71.1138 172.339 71.3679 172.239 71.5956C172.139 71.8234 171.967 72.0123 171.75 72.1339L175.046 75.2164C175.216 75.1005 175.403 75.0131 175.6 74.9577C175.836 74.8764 176.088 74.8537 176.335 74.8917C176.582 74.9297 176.816 75.0271 177.017 75.1756C180.376 71.058 186.373 67.7303 186.373 67.7303L183.649 63.0498C183.649 63.0498 183.059 60.2261 179.795 61.9012C177.271 63.1996 173.185 68.0073 171.464 70.1183C171.659 70.1566 171.84 70.2469 171.988 70.3795C172.136 70.5122 172.245 70.6823 172.304 70.8719ZM179.89 64.7068C181.307 63.926 182.868 64.044 183.372 64.9611C183.876 65.8781 183.136 67.2627 181.72 68.039C180.303 68.8153 178.742 68.7018 178.233 67.7803C177.725 66.8587 178.456 65.4831 179.877 64.7068H179.89Z" fill="white" stroke="#263238" stroke-miterlimit="10"/>
<path d="M189.555 72.1657L180.903 62.7638C180.903 62.7638 182.501 61.243 181.965 60.1125L190.282 69.0741C190.282 69.0741 191.435 70.5586 189.555 72.1657Z" fill="#92E3A9" stroke="#263238" stroke-linejoin="round"/>
<path d="M189.528 68.2796L183.127 61.3792C183.068 61.8177 182.854 62.2205 182.523 62.5141L189.333 69.2284L189.528 68.2796Z" fill="white" stroke="#263238" stroke-miterlimit="10"/>
<path d="M1 196.928H218.156" stroke="#263238" stroke-linecap="round" stroke-linejoin="round"/>
</svg>
