<svg width="46" height="46" viewBox="0 0 46 46" fill="none" xmlns="http://www.w3.org/2000/svg">
<path d="M42.1666 30.6667V7.66671C42.1666 6.65004 41.7627 5.67502 41.0438 4.95613C40.3249 4.23724 39.3499 3.83337 38.3333 3.83337H15.3333C14.3166 3.83337 13.3416 4.23724 12.6227 4.95613C11.9038 5.67502 11.4999 6.65004 11.4999 7.66671V30.6667C11.4999 31.6834 11.9038 32.6584 12.6227 33.3773C13.3416 34.0962 14.3166 34.5 15.3333 34.5H38.3333C39.3499 34.5 40.3249 34.0962 41.0438 33.3773C41.7627 32.6584 42.1666 31.6834 42.1666 30.6667ZM21.0833 23L24.9741 28.1942L30.6666 21.0834L38.3333 30.6667H15.3333M3.83325 11.5V38.3334C3.83325 39.35 4.23712 40.3251 4.95601 41.0439C5.6749 41.7628 6.64992 42.1667 7.66659 42.1667H34.4999V38.3334H7.66659V11.5" fill="#0C7075"/>
</svg>
