<svg width="45" height="45" viewBox="0 0 45 45" fill="none" xmlns="http://www.w3.org/2000/svg">
<path d="M40.875 33.375L34.125 26.625C33.75 26.4375 33.375 26.25 33 26.25H27.75C27 26.25 26.25 27 26.25 27.75V33C26.25 33.375 26.4375 33.75 26.625 34.125L33.375 40.875C33.5625 41.0625 33.9375 41.25 34.5 41.25C34.875 41.25 35.25 41.0625 35.625 40.875L40.875 35.625C41.0625 35.4375 41.25 35.0625 41.25 34.5C41.25 34.125 41.0625 33.75 40.875 33.375ZM28.875 30C28.3125 30 27.75 29.4375 27.75 28.875C27.75 28.3125 28.3125 27.75 28.875 27.75C29.4375 27.75 30 28.3125 30 28.875C30 29.4375 29.4375 30 28.875 30ZM18.75 7.5C14.625 7.5 11.25 10.875 11.25 15C11.25 19.125 14.625 22.5 18.75 22.5C22.875 22.5 26.25 19.125 26.25 15C26.25 10.875 22.875 7.5 18.75 7.5ZM18.75 26.25C10.5 26.25 3.75 29.625 3.75 33.75V37.5H24.75L24 36.75C23.0625 35.8125 22.5 34.5 22.5 33V27.75C22.5 27.375 22.5 27 22.6875 26.4375C21.375 26.25 20.0625 26.25 18.75 26.25Z" fill="#0C7075"/>
</svg>
